<?xml version="1.0" standalone="no"?>
<!DOCTYPE svg PUBLIC "-//W3C//DTD SVG 20010904//EN"
 "http://www.w3.org/TR/2001/REC-SVG-20010904/DTD/svg10.dtd">
<svg version="1.0" xmlns="http://www.w3.org/2000/svg"
 width="1060.000000pt" height="585.000000pt" viewBox="0 0 1060.000000 585.000000"
 preserveAspectRatio="xMidYMid meet">

<g transform="translate(0.000000,585.000000) scale(0.100000,-0.100000)"
fill="#000000" stroke="none">
<path d="M1905 5634 c-16 -2 -72 -9 -124 -15 -562 -65 -1113 -415 -1434 -909
-462 -713 -429 -1639 84 -2325 575 -769 1629 -1027 2499 -612 750 358 1207
1143 1149 1972 -70 1000 -843 1791 -1844 1885 -104 9 -263 11 -330 4z m-656
-771 c236 -103 536 -416 742 -775 59 -100 49 -102 114 17 44 81 119 195 182
277 43 56 43 57 43 141 l0 84 -62 6 c-35 3 -64 4 -66 2 -2 -2 2 -21 8 -44 16
-59 -3 -124 -51 -172 -158 -158 -410 50 -284 235 l25 37 -80 57 c-43 31 -79
59 -80 62 0 3 95 4 212 1 l212 -3 129 -87 c112 -74 126 -86 104 -89 -25 -3
-27 -7 -27 -51 0 -26 3 -50 6 -53 3 -3 48 36 99 87 111 108 247 208 363 265
46 23 85 40 87 38 3 -2 -18 -22 -46 -43 -101 -80 -239 -263 -342 -455 -183
-342 -381 -977 -472 -1515 -9 -55 -19 -107 -22 -115 -3 -8 -20 64 -38 161
-163 881 -443 1559 -784 1898 -78 77 -76 80 28 34z m11 -463 c41 -5 110 -17
154 -27 78 -16 79 -17 98 -61 11 -24 17 -46 14 -49 -3 -3 -26 0 -52 6 -26 7
-91 15 -145 18 l-99 6 0 -555 0 -555 98 -16 c164 -27 300 -81 437 -173 100
-66 195 -152 195 -175 0 -25 -6 -24 -49 9 -57 45 -169 108 -251 142 -148 61
-387 110 -540 110 l-50 0 0 343 c0 189 3 486 7 660 l6 316 31 4 c55 7 70 7
146 -3z m1731 -8 c4 -4 10 -300 14 -658 l6 -651 -110 -6 c-266 -15 -520 -98
-713 -233 -52 -36 -64 -41 -67 -27 -5 24 92 112 196 180 149 97 284 149 454
174 l79 11 0 556 0 555 -102 -6 c-57 -4 -127 -13 -155 -20 -29 -8 -53 -12 -53
-10 0 2 11 26 25 52 22 45 29 50 72 59 46 10 144 27 208 36 39 5 138 -3 146
-12z m-2019 -806 l-3 -604 173 5 c274 8 481 -27 648 -112 58 -30 142 -85 129
-85 -3 0 -45 13 -93 30 -328 111 -672 113 -934 7 l-62 -26 0 663 0 663 68 31
c37 17 69 31 72 31 3 1 4 -271 2 -603z m2216 569 l62 -28 0 -663 0 -663 -58
24 c-264 107 -610 105 -938 -5 -48 -17 -89 -28 -91 -26 -2 2 20 20 50 39 171
113 416 165 732 154 l160 -5 -3 605 c-3 499 -1 605 10 600 7 -3 41 -17 76 -32z
m-2448 -905 l0 -590 61 30 c77 39 241 94 343 115 166 33 427 36 576 6 41 -8
36 -9 -47 -10 -327 -4 -690 -108 -982 -282 -47 -29 -89 -54 -94 -56 -4 -2 -6
293 -5 657 l3 661 65 29 c36 16 68 30 73 30 4 0 7 -266 7 -590z m2680 559 l70
-32 0 -659 c0 -363 -3 -658 -7 -656 -5 2 -52 29 -105 61 -288 171 -649 274
-980 278 -78 1 -80 2 -38 10 88 18 271 27 383 18 189 -14 395 -68 540 -140
l57 -29 0 590 c0 324 2 590 5 590 3 0 36 -14 75 -31z"/>
<path d="M9056 5179 c-257 -33 -472 -135 -642 -303 -216 -214 -341 -511 -384
-908 -13 -128 -13 -1006 1 -1139 30 -301 116 -563 249 -760 60 -89 191 -217
279 -274 128 -83 278 -137 457 -166 100 -16 354 -16 459 0 585 89 904 459 961
1114 l6 77 -349 0 -350 0 -12 -114 c-39 -386 -156 -507 -488 -507 -123 -1
-183 11 -254 47 -132 66 -208 204 -246 446 -16 99 -18 185 -18 693 0 420 4
604 13 667 61 416 219 573 557 555 137 -8 219 -35 285 -94 93 -83 141 -224
156 -450 l7 -103 348 0 349 0 0 41 c0 102 -48 337 -96 471 -62 172 -178 356
-282 449 -201 179 -488 272 -829 268 -59 -1 -139 -5 -177 -10z"/>
<path d="M4600 3400 l0 -1740 350 0 350 0 0 1740 0 1740 -350 0 -350 0 0
-1740z"/>
<path d="M5890 3400 l0 -1740 970 0 970 0 0 290 0 290 -620 0 -620 0 0 1450 0
1450 -350 0 -350 0 0 -1740z"/>
<path d="M1600 705 l0 -405 50 0 50 0 0 405 0 405 -50 0 -50 0 0 -405z"/>
<path d="M2250 944 l0 -166 -35 31 c-63 55 -161 64 -243 22 -180 -93 -188
-413 -12 -511 91 -51 230 -24 279 53 l18 29 7 -51 7 -51 39 0 40 0 0 405 0
405 -50 0 -50 0 0 -166z m-69 -187 c53 -35 69 -78 69 -180 0 -109 -16 -148
-75 -182 -79 -47 -178 -20 -219 60 -28 54 -33 153 -12 210 18 46 57 92 91 106
41 16 111 10 146 -14z"/>
<path d="M7100 944 l0 -166 -35 31 c-63 55 -161 64 -243 22 -180 -93 -188
-413 -12 -511 91 -51 230 -24 279 53 l18 29 7 -51 7 -51 39 0 40 0 0 405 0
405 -50 0 -50 0 0 -166z m-69 -187 c53 -35 69 -78 69 -180 0 -109 -16 -148
-75 -182 -79 -47 -178 -20 -219 60 -28 54 -33 153 -12 210 18 46 57 92 91 106
41 16 111 10 146 -14z"/>
<path d="M165 1074 c-16 -3 -40 -7 -52 -9 l-23 -5 0 -379 0 -379 66 -8 c90 -9
213 2 277 26 91 34 137 103 137 202 0 73 -31 124 -97 164 l-52 31 37 24 c40
26 82 97 82 139 0 78 -42 138 -118 172 -44 20 -189 32 -257 22z m224 -94 c30
-15 51 -62 51 -111 0 -77 -79 -129 -197 -129 l-53 0 0 129 0 130 43 3 c52 4
129 -7 156 -22z m3 -334 c104 -51 104 -202 1 -255 -38 -19 -75 -24 -160 -22
l-43 1 0 151 0 151 83 -4 c52 -2 95 -10 119 -22z"/>
<path d="M1340 1050 c-53 -53 13 -126 81 -90 28 15 26 74 -3 94 -30 21 -54 20
-78 -4z"/>
<path d="M2530 1050 c-53 -53 13 -126 81 -90 28 15 26 74 -3 94 -30 21 -54 20
-78 -4z"/>
<path d="M3013 851 c-41 -11 -82 -36 -110 -69 l-21 -25 -7 46 c-7 47 -8 47
-46 47 l-39 0 0 -275 0 -275 50 0 50 0 0 181 c0 146 3 188 16 215 48 101 199
110 246 14 15 -30 18 -64 18 -222 l0 -188 50 0 50 0 0 178 c-1 193 -9 248 -45
303 -38 58 -134 90 -212 70z"/>
<path d="M3556 846 c-56 -21 -86 -45 -123 -99 -38 -56 -58 -142 -48 -210 19
-144 105 -229 233 -229 70 0 107 14 151 55 l33 32 -4 -77 c-4 -82 -17 -112
-72 -152 -40 -30 -154 -34 -223 -8 l-53 20 -10 -36 c-7 -27 -6 -38 3 -44 30
-20 99 -32 178 -33 76 0 92 3 144 30 74 38 110 91 125 185 5 36 10 179 10 318
l0 252 -40 0 c-37 0 -40 -2 -40 -27 0 -16 -4 -34 -9 -42 -7 -11 -11 -9 -20 8
-29 53 -160 85 -235 57z m172 -86 c56 -34 72 -73 72 -175 0 -100 -15 -143 -64
-180 -40 -29 -139 -28 -183 3 -103 74 -95 286 14 350 49 28 117 29 161 2z"/>
<path d="M4997 846 c-75 -21 -127 -63 -162 -131 -58 -113 -33 -281 53 -356 92
-81 232 -88 339 -16 164 109 143 410 -33 488 -56 25 -139 32 -197 15z m143
-78 c85 -43 127 -185 84 -286 -21 -52 -72 -101 -116 -112 -148 -40 -261 152
-184 315 26 58 41 72 93 91 53 18 72 17 123 -8z"/>
<path d="M6284 841 c-39 -18 -84 -66 -84 -91 0 -6 -4 -8 -10 -5 -5 3 -10 28
-10 56 l0 49 -40 0 -40 0 0 -275 0 -275 50 0 50 0 0 172 c0 155 2 176 21 216
23 46 77 81 127 82 19 0 22 5 22 45 0 40 -2 45 -22 45 -13 0 -41 -9 -64 -19z"/>
<path d="M7554 841 c-39 -18 -84 -66 -84 -91 0 -6 -4 -8 -10 -5 -5 3 -10 28
-10 56 l0 49 -40 0 -40 0 0 -275 0 -275 50 0 50 0 0 172 c0 155 2 176 21 216
23 46 77 81 127 82 19 0 22 5 22 45 0 40 -2 45 -22 45 -13 0 -41 -9 -64 -19z"/>
<path d="M7879 844 c-100 -30 -169 -142 -169 -273 0 -122 47 -208 137 -252 39
-20 64 -24 133 -23 111 0 170 17 170 47 0 39 -12 48 -51 37 -62 -18 -162 -14
-207 9 -47 24 -82 75 -89 131 l-6 40 194 2 194 3 -2 61 c-4 173 -139 269 -304
218z m136 -68 c41 -18 75 -69 75 -113 l0 -33 -145 0 c-93 0 -145 4 -145 10 0
19 30 84 48 104 39 43 108 56 167 32z"/>
<path d="M8417 850 c-21 -6 -51 -17 -67 -25 -27 -14 -28 -17 -19 -45 13 -35
12 -34 47 -16 43 22 116 30 157 16 41 -13 75 -59 75 -101 0 -25 -3 -27 -62
-33 -148 -16 -232 -64 -257 -147 -26 -86 11 -163 95 -195 40 -15 54 -16 102
-6 34 7 71 24 93 42 l38 30 7 -35 c6 -33 8 -35 48 -35 l41 0 -6 207 c-3 131
-10 219 -18 238 -15 38 -48 73 -84 91 -35 19 -140 26 -190 14z m193 -330 c0
-81 -19 -116 -77 -142 -83 -36 -153 1 -153 82 0 72 70 118 183 119 l47 1 0
-60z"/>
<path d="M9072 849 c-18 -5 -50 -27 -71 -48 l-39 -39 -7 44 c-6 43 -7 44 -46
44 l-39 0 0 -275 0 -275 50 0 50 0 0 183 c0 205 7 233 69 274 61 41 135 23
165 -41 13 -28 16 -69 16 -225 l0 -191 50 0 50 0 0 188 c0 162 2 192 18 221
36 67 133 90 184 44 42 -37 48 -72 48 -268 l0 -185 50 0 50 0 0 153 c-1 270
-24 348 -117 389 -77 34 -182 5 -233 -64 l-21 -29 -22 32 c-12 18 -33 41 -47
51 -30 22 -112 31 -158 17z"/>
<path d="M700 675 c0 -95 5 -197 11 -224 22 -104 84 -156 184 -156 67 1 114
21 157 67 l27 29 6 -46 c7 -45 8 -45 46 -45 l39 0 0 275 0 275 -50 0 -50 0 0
-189 c0 -179 -1 -190 -22 -221 -47 -68 -148 -90 -200 -44 -42 38 -48 73 -48
269 l0 185 -50 0 -50 0 0 -175z"/>
<path d="M1330 575 l0 -275 50 0 50 0 0 275 0 275 -50 0 -50 0 0 -275z"/>
<path d="M2520 575 l0 -275 50 0 50 0 0 275 0 275 -50 0 -50 0 0 -275z"/>
<path d="M4336 590 c57 -143 104 -267 104 -275 0 -47 -84 -149 -146 -177 -22
-10 -25 -17 -20 -41 3 -16 6 -34 6 -40 0 -17 59 1 105 33 83 57 129 144 266
500 l97 255 -45 3 c-25 2 -49 0 -53 -5 -5 -4 -40 -102 -78 -216 -39 -115 -73
-211 -75 -214 -3 -2 -8 11 -12 29 -6 27 -96 278 -137 381 -9 25 -15 27 -63 27
l-53 0 104 -260z"/>
<path d="M5470 675 c0 -95 5 -197 11 -224 22 -104 84 -156 184 -156 67 1 114
21 157 67 l27 29 6 -46 c7 -45 8 -45 46 -45 l39 0 0 275 0 275 -50 0 -50 0 0
-189 c0 -179 -1 -190 -22 -221 -47 -68 -148 -90 -200 -44 -42 38 -48 73 -48
269 l0 185 -50 0 -50 0 0 -175z"/>
</g>
</svg>
